<?xml version="1.0" encoding="UTF-8"?>
<svg xmlns="http://www.w3.org/2000/svg" viewBox="0 0 512 512">
  <path fill="#2c3e50" d="M480 128c0-35.35-85.96-64-192-64S96 92.65 96 128c0 8.67 5.168 16.95 14.78 24.46C164.7 136.2 230.8 128 304 128s139.3 8.21 193.2 24.46C507 144.1 512 136.7 512 128h-32zM304 64c106 0 192 28.65 192 64s-86 64-192 64S112 163.3 112 128s86-64 192-64zM96 384c0 35.35 85.96 64 192 64s192-28.65 192-64c0-8.67-5.17-16.95-14.78-24.46C411.3 375.8 345.2 384 272 384s-139.3-8.21-193.2-24.46C69.17 367.1 64 375.3 64 384h32zm192 0c-106 0-192-28.65-192-64s86-64 192-64s192 28.65 192 64s-86 64-192 64z"/>
  <path fill="#2c3e50" d="M240 128c-35.35 0-64 28.65-64 64v96c0 35.35 28.65 64 64 64h64c35.35 0 64-28.65 64-64V192c0-35.35-28.65-64-64-64h-64zm64 64v96c0 17.64-14.36 32-32 32h-64c-17.64 0-32-14.36-32-32V192c0-17.64 14.36-32 32-32h64c17.64 0 32 14.36 32 32z"/>
  <path fill="#2c3e50" d="M368 160c-8.844 0-16 7.156-16 16s7.156 16 16 16s16-7.156 16-16s-7.156-16-16-16z"/>
</svg>